# xmcd CD database file
#
# Track frame offsets:
#	150
#	21321
#	38071
#	54646
#	82545
#	101777
#	118683
#	142047
#	161332
#	192572
#	225931
#	257684
#	293812
#
# Disc length: 3982 seconds
#
# Revision: 1
# Processed by: cddbd v1.5.2PL0 Copyright (c) Steve Scherf et al.
# Submitted via: CDex 1.50beta9
#
DISCID=aa0f8c0d
DTITLE=Claude Challe - The Best Of - Dance
DYEAR=2006
DGENRE=New Age
TTITLE0=Louie Vega - Jungle Fever
TTITLE1=Goran Bregovic - Cajesukarije Cocec
TTITLE2=Willy Deville - Damasiando Corason
TTITLE3=Sidestepper - Logozo
TTITLE4=Angel Tears - Inhalla
TTITLE5=Hovannes K. - La Cumparsita (Tang'Oriental House Mix
TTITLE6=The R.E.G. Project - Batwannis Beek
TTITLE7=T.C.1992 - Funky Guitar
TTITLE8=Hombre - Shake The Body (Remix O Corpo
TTITLE9=Silicone Soul - Right On
TTITLE10=Ralphi Rosario - Maula (Bhangra - Hydrate Vocale Mix)
TTITLE11=A Guy Called Gerald - Humanity (Asley Beedle's Love and Compassion Mix
TTITLE12=Delerium - Silence (Fade's Sanctuary Mix)
EXTD=YEAR: 2006
EXTT0=
EXTT1=
EXTT2=
EXTT3=
EXTT4=
EXTT5=
EXTT6=
EXTT7=
EXTT8=
EXTT9=
EXTT10=
EXTT11=
EXTT12=
PLAYORDER=
